<svg width="246" height="26" viewBox="0 0 246 26" fill="none" xmlns="http://www.w3.org/2000/svg">
<path d="M242.973 22.408C243.869 21.48 244.541 20.296 244.989 18.824H245.469C245.053 20.904 244.157 22.504 242.813 23.656C241.469 24.84 239.869 25.416 238.013 25.416C235.965 25.416 234.237 24.648 232.797 23.112C231.389 21.576 230.685 19.72 230.685 17.448C230.685 15.112 231.389 13.16 232.797 11.592C234.205 9.992 236.061 9.192 238.333 9.192C240.573 9.192 242.301 9.864 243.581 11.24C244.573 12.296 245.213 13.608 245.501 15.208C245.661 15.976 245.053 16.68 244.285 16.68H235.805C235.101 16.68 234.525 17.288 234.557 18.024C234.685 19.432 235.101 20.68 235.901 21.736C236.893 23.144 238.173 23.848 239.677 23.784C240.989 23.752 242.109 23.304 242.973 22.408ZM234.717 15.112C234.653 15.496 234.589 16.52 234.621 16.456C234.653 16.36 234.813 16.2 235.357 16.072C236.061 15.944 242.045 15.784 241.469 13.448C241.245 12.552 240.893 11.752 240.317 10.984C239.741 10.216 239.037 9.832 238.237 9.864C237.629 9.896 237.085 10.12 236.573 10.568C236.125 10.984 235.741 11.496 235.485 12.168C235.197 12.808 235.005 13.448 234.877 14.088C234.813 14.44 234.717 15.112 234.717 15.112Z" fill="#2D2322"/>
<path d="M228.106 21.352C228.106 23.112 228.842 23.848 230.346 23.592V24.136H230.314C227.85 24.008 225.034 25.416 225.034 25.416C224.714 25.128 224.522 24.488 224.458 23.592C222.986 24.776 221.45 25.384 219.786 25.384C217.802 25.384 216.17 24.68 214.986 23.304C213.77 21.896 213.194 19.976 213.194 17.512C213.194 15.048 213.834 13.032 215.146 11.528C216.426 9.992 218.026 9.224 219.978 9.224C221.642 9.288 223.146 9.768 224.426 10.76V5.512C224.426 3.752 224.714 2.856 222.378 2.856V2.664C222.634 2.504 222.89 2.376 223.178 2.248C223.658 2.024 224.17 1.8 224.682 1.672C225.738 1.384 227.082 1.288 227.754 2.344C228.266 3.208 228.17 4.328 228.17 5.256C228.17 5.256 228.17 8.616 228.17 9.064L228.106 21.352ZM223.402 23.176C224.074 22.472 224.394 21.576 224.426 20.488V12.072C224.074 11.624 223.594 11.24 222.986 10.888C222.314 10.504 221.674 10.312 221.034 10.312C219.722 10.312 218.698 10.92 217.93 12.2C217.226 13.448 216.874 15.08 216.874 17.16C216.842 19.24 217.258 20.968 218.09 22.344C218.922 23.72 219.946 24.36 221.194 24.328C221.962 24.264 222.698 23.88 223.402 23.176Z" fill="#2D2322"/>
<path d="M210.974 21.384C210.974 23.4 211.678 24.424 213.086 24.488V25.032C213.086 25.032 209.662 23.944 205.15 25.032V24.488C205.342 24.488 205.534 24.456 205.726 24.392C205.758 24.392 205.822 24.36 205.854 24.36C206.046 24.264 206.238 24.168 206.366 24.04C206.398 24.04 206.398 24.04 206.398 24.008C206.718 23.72 206.942 23.368 207.07 22.856C207.102 22.824 207.102 22.76 207.134 22.696C207.198 22.312 207.262 21.896 207.262 21.384L207.294 13.352C207.294 11.592 207.582 10.696 205.246 10.696V10.536C205.246 10.536 210.942 7.112 210.942 11.848C210.974 11.816 210.974 21.384 210.974 21.384ZM203.262 23.816C203.518 23.752 203.998 23.688 204.67 23.368L204.926 24.072C204.574 24.296 203.998 24.52 203.262 24.808C199.134 26.216 197.086 25.096 197.086 21.416V10.472H194.942V9.8C194.942 9.8 195.006 9.8 195.07 9.8C195.87 9.736 200.318 9.32 200.318 3.368H200.798V9.416C202.142 9.288 203.486 9.032 204.702 8.488C205.566 8.136 206.334 7.624 206.942 6.952C207.486 6.312 208.03 5.352 208.03 4.488C208.03 3.016 206.654 2.728 206.59 2.76C208.19 1.896 209.534 2.344 210.014 3.368C210.206 3.752 210.27 4.232 210.206 4.648C209.886 6.344 208.542 7.656 207.102 8.456C206.014 9.064 204.83 9.448 203.614 9.736C202.686 9.96 201.758 10.12 200.798 10.216V21.096C200.798 22.216 201.022 23.016 201.438 23.496C201.822 23.944 202.43 24.04 203.262 23.816Z" fill="#2D2322"/>
<path d="M180.009 13.32C180.009 11.56 180.297 10.664 177.961 10.664V10.472C177.961 10.472 181.225 8.52 182.825 9.64C183.433 10.024 183.625 10.312 183.689 10.984C182.153 11.912 180.073 15.56 180.009 15.592V13.32ZM183.881 22.728C184.169 23.816 184.809 24.392 185.833 24.456C185.865 24.488 185.865 25 185.865 25C185.833 25 182.409 23.88 177.865 25V24.456C178.089 24.456 178.281 24.392 178.473 24.36C178.505 24.328 178.537 24.328 178.601 24.328C178.793 24.232 178.953 24.136 179.113 24.008C179.465 23.688 179.689 23.304 179.817 22.76C179.817 22.728 179.849 22.696 179.849 22.664C179.945 22.28 179.977 21.832 179.977 21.352L180.009 19.24C180.809 17.736 182.473 15.08 183.721 13.512C183.721 13.672 183.721 14.024 183.721 14.216V21.224C183.721 21.32 183.721 21.384 183.721 21.448C183.721 21.896 183.785 22.28 183.849 22.6C183.849 22.664 183.881 22.696 183.881 22.728ZM193.353 21.352C193.353 23.336 194.089 24.392 195.497 24.456V25C195.497 25 192.073 23.912 187.497 25V24.456C187.721 24.456 187.945 24.424 188.105 24.36C188.169 24.36 188.201 24.328 188.233 24.328C188.425 24.232 188.617 24.136 188.745 24.008C189.097 23.688 189.321 23.336 189.449 22.792C189.481 22.76 189.481 22.696 189.513 22.664C189.609 22.28 189.641 21.832 189.641 21.352L189.705 14.024C189.705 13.096 189.449 12.296 188.873 11.624C188.329 10.952 187.593 10.6 186.665 10.6C186.089 10.6 185.609 10.792 185.161 11.112C185.033 11.208 184.905 11.304 184.777 11.432C184.713 11.496 184.649 11.528 184.585 11.624V11.592C184.233 11.912 183.945 12.264 183.657 12.584C182.441 14.056 181.481 15.752 180.457 17.416C179.465 19.08 178.473 20.744 177.129 22.28C176.905 22.568 176.681 22.824 176.425 23.048C175.689 23.784 174.857 24.392 173.961 24.84C172.937 25.288 171.817 25.448 170.697 25.48C168.649 25.512 166.761 24.68 165.353 23.176C163.945 21.672 163.273 19.816 163.273 17.576C163.273 15.24 163.945 13.288 165.353 11.752C166.793 10.152 168.617 9.352 170.857 9.352C173.097 9.352 174.825 10.024 176.105 11.368C176.137 11.432 176.169 11.464 176.201 11.496C178.057 13.512 176.457 16.808 173.705 16.808H171.145C168.585 16.808 166.921 19.656 168.393 21.768C168.425 21.8 168.425 21.8 168.457 21.832C169.353 23.112 170.505 23.752 171.817 23.816C173.449 23.784 174.985 22.76 176.201 21.448C177.513 20.104 178.601 18.504 179.689 16.904C180.777 15.304 181.865 13.64 183.209 12.168C183.529 11.816 183.913 11.464 184.297 11.112C185.385 10.056 186.697 9.32 188.233 9.32C189.801 9.288 191.049 9.704 191.977 10.632C192.873 11.528 193.321 12.84 193.321 14.536L193.353 21.352ZM167.177 17.48C167.273 17.224 167.817 16.936 168.041 16.808C168.457 16.552 168.873 16.392 169.289 16.264C170.185 16.008 171.113 15.88 172.009 15.624C173.129 15.272 174.313 14.696 173.929 13.352C173.545 11.912 172.521 9.992 170.793 10.024C170.185 10.056 169.609 10.28 169.129 10.696C167.881 11.784 167.433 13.608 167.273 15.24C167.273 15.432 167.241 15.592 167.241 15.784C167.209 16.104 167.209 16.424 167.209 16.744C167.209 16.968 167.273 17.256 167.177 17.48Z" fill="#2D2322"/>
<path d="M158.407 9.512C158.407 9.512 160.999 10.088 163.783 9.512V10.056C162.439 10.088 161.223 11.176 160.199 13.352L154.631 25H153.895L148.743 13.352C147.783 11.176 146.791 10.088 145.831 10.056V9.512C145.831 9.512 149.607 10.248 153.703 9.512V10.056C152.295 10.056 152.071 11.144 152.967 13.352L155.879 20.456L159.367 13.352C160.423 11.176 160.103 10.088 158.407 10.056V9.512Z" fill="#2D2322"/>
<path d="M145.29 18.6L145.834 18.632L144.65 25C144.65 25 129.834 24.328 126.186 24.968V24.36C128.01 24.424 128.938 23.464 128.938 21.544V21.416V6.024C128.938 4.136 128.01 3.208 126.186 3.208V2.632C131.082 3.368 143.306 2.6 143.306 2.6L144.426 8.008L143.818 8.104C143.594 4.936 140.682 3.336 138.474 3.336H135.178H132.874V12.648H135.722C137.898 12.648 138.986 11.528 138.986 9.32H139.594C138.954 13.064 139.594 16.744 139.594 16.744H138.986C138.986 14.472 137.898 13.192 135.722 13.192H132.874V20.68C132.874 23.176 134.57 24.424 137.93 24.424C141.194 24.424 145.066 22.472 145.29 18.6Z" fill="#2D2322"/>
<path d="M118.92 0.679998C119.848 0.999998 121.064 1.832 121.064 2.952C121.064 3.688 120.68 4.584 119.528 5.416C119.272 4.232 119.048 0.935999 116.552 0.935999C116.424 0.935999 116.264 0.935999 116.136 0.967998C113.352 1.256 111.432 6.856 114.472 9.544H118.792V10.376H114.472L114.504 21.352C114.536 23.336 115.24 24.392 116.648 24.456V25C116.648 25 113.224 23.912 108.616 25V24.456C108.84 24.456 109.064 24.424 109.256 24.36C109.288 24.328 109.32 24.328 109.352 24.328C109.544 24.232 109.736 24.136 109.896 24.008C110.216 23.688 110.472 23.304 110.6 22.76C110.6 22.728 110.632 22.696 110.632 22.664C110.728 22.28 110.76 21.832 110.76 21.352L110.824 10.376H108.488V9.544H110.824V6.6C110.792 4.744 111.368 3.24 112.488 2.088C113.832 0.807999 115.688 0.136 117.512 0.327999C117.992 0.391998 118.44 0.487999 118.92 0.679998Z" fill="#2D2322"/>
<path d="M106.159 11.368C107.503 12.84 108.207 14.76 108.303 17.16C108.303 19.464 107.503 21.416 105.967 22.984C104.431 24.584 102.607 25.384 100.463 25.384C98.3505 25.384 96.5585 24.616 95.0865 23.08C93.6145 21.576 92.9105 19.688 92.9105 17.448C92.9105 15.144 93.6145 13.192 95.0865 11.592C96.5585 9.96 98.4465 9.16 100.751 9.16C103.023 9.192 104.815 9.928 106.159 11.368ZM103.247 22.472C103.983 21.032 104.367 19.24 104.367 17.16C104.367 14.984 104.047 13.256 103.407 11.912C102.799 10.6 101.903 9.8 100.751 9.8C99.6625 9.8 98.7345 10.664 97.9985 12.136C97.2945 13.576 96.9425 15.336 96.9425 17.416C96.9425 19.432 97.2945 21.128 97.9985 22.568C98.7025 23.944 99.5665 24.84 100.591 24.84C101.647 24.84 102.543 23.912 103.247 22.472Z" fill="#2D2322"/>
<path d="M73.2562 13.256C73.2562 11.528 73.5442 10.632 71.2082 10.632V10.44C71.2082 10.44 73.0322 9.352 74.6002 9.256C75.8162 9.192 76.9362 9.704 76.9362 11.752C76.9362 12.552 76.9042 12.712 76.9042 12.712L73.2562 16.776V13.256ZM76.9362 21.896C76.9682 23.592 77.6722 24.488 79.0482 24.552V25C79.0482 25 75.6562 24.072 71.1122 25V24.552C71.3362 24.552 71.5282 24.488 71.7202 24.456C71.7522 24.424 71.7842 24.424 71.8482 24.424C72.0402 24.36 72.2002 24.264 72.3602 24.168C72.3602 24.136 72.3922 24.136 72.3922 24.136C72.7122 23.88 72.9362 23.56 73.0642 23.112C73.0642 23.08 73.0962 23.048 73.0962 23.016C73.1922 22.696 73.2242 22.312 73.2242 21.896L73.2562 20.296L76.9362 15.688C76.9362 16.328 76.9362 18.056 76.9362 18.056C76.9362 20.104 76.9362 21.896 76.9362 21.896ZM82.4722 9.608C83.9122 9.608 84.9042 10.536 84.9042 11.88C84.9042 13.256 83.7522 14.632 82.5362 14.824C82.6642 14.344 82.7282 13.864 82.7282 13.416C82.7282 12.808 82.6002 12.04 82.0242 11.656C81.4162 11.24 80.4882 11.4 79.8802 11.816C79.0162 12.392 78.1842 13.352 77.4802 14.152C76.6162 15.112 71.8802 21.736 67.9762 24.328C66.6962 25.192 65.3842 25.448 63.8482 25.448C61.8322 25.448 60.1042 24.616 58.6642 23.08C57.2562 21.576 56.5842 19.72 56.5842 17.48C56.5842 15.176 57.2562 13.224 58.6642 11.688C60.0722 10.088 61.9282 9.288 64.1362 9.288C66.3762 9.288 68.1042 9.96 69.3842 11.304C70.3442 12.36 70.9842 13.672 71.2722 15.272C71.4002 16.008 70.8242 16.712 70.0562 16.712H61.6722C60.9362 16.712 60.3922 17.352 60.4242 18.056C60.5522 19.432 60.8722 20.68 61.6402 21.736C62.6642 23.144 66.7282 25 74.2802 16.52C76.3602 14.184 78.4402 11.88 79.7202 10.856C80.7442 9.992 81.5762 9.608 82.4722 9.608ZM60.5842 15.176C60.5202 15.528 60.4562 16.552 60.4882 16.488C60.5202 16.392 60.6802 16.264 61.1922 16.136C61.9282 15.976 67.8482 15.816 67.2722 13.512C67.0482 12.616 66.6962 11.816 66.1202 11.08C65.5442 10.312 64.8722 9.96 64.0722 9.992C63.4642 9.992 62.9202 10.216 62.4402 10.664C61.9602 11.08 61.6082 11.592 61.3202 12.232C61.0642 12.872 60.8722 13.512 60.7442 14.152C60.6802 14.504 60.5842 15.176 60.5842 15.176Z" fill="#2D2322"/>
<path d="M54.0377 21.352C54.0377 23.112 54.7737 23.848 56.2777 23.592V24.136H56.2457C53.7817 24.008 50.9657 25.416 50.9657 25.416C50.6457 25.128 50.4537 24.488 50.3897 23.592C48.9177 24.776 47.3817 25.384 45.7177 25.384C43.7337 25.384 42.1017 24.68 40.9177 23.304C39.7017 21.896 39.1257 19.976 39.1257 17.512C39.1257 15.048 39.7657 13.032 41.0777 11.528C42.3577 9.992 43.9577 9.224 45.9097 9.224C47.5737 9.288 49.0777 9.768 50.3577 10.76V5.512C50.3577 3.752 50.6457 2.856 48.3097 2.856V2.664C48.5657 2.504 48.8217 2.376 49.1097 2.248C49.5897 2.024 50.1017 1.8 50.6137 1.672C51.6697 1.384 53.0137 1.288 53.6857 2.344C54.1977 3.208 54.1017 4.328 54.1017 5.256C54.1017 5.256 54.1017 8.616 54.1017 9.064L54.0377 21.352ZM49.3337 23.176C50.0057 22.472 50.3257 21.576 50.3577 20.488V12.072C50.0057 11.624 49.5257 11.24 48.9177 10.888C48.2457 10.504 47.6057 10.312 46.9657 10.312C45.6537 10.312 44.6297 10.92 43.8617 12.2C43.1577 13.448 42.8057 15.08 42.8057 17.16C42.7737 19.24 43.1897 20.968 44.0217 22.344C44.8537 23.72 45.8777 24.36 47.1257 24.328C47.8937 24.264 48.6297 23.88 49.3337 23.176Z" fill="#2D2322"/>
<path d="M35.658 9.512C37.098 9.512 38.09 10.44 38.09 11.784C38.09 13.16 36.938 14.6 35.722 14.76C35.818 14.28 35.882 13.8 35.882 13.352C35.882 12.264 35.498 11.336 34.41 11.336C33.258 11.336 31.466 12.392 30.858 16.808C30.826 16.808 30.826 16.808 30.826 16.808C30.826 19.24 30.826 21.352 30.826 21.352C30.858 23.368 31.562 24.424 32.97 24.488V25.032C32.97 25.032 29.546 23.912 24.97 25.032V24.488C25.194 24.488 25.386 24.424 25.578 24.392C25.61 24.36 25.642 24.36 25.674 24.36C25.866 24.264 26.058 24.168 26.218 24.04C26.218 24.04 26.218 24.008 26.25 24.008C26.57 23.72 26.794 23.304 26.922 22.792C26.922 22.76 26.954 22.728 26.954 22.696C27.05 22.312 27.082 21.864 27.082 21.352L27.114 16.904V13.192C27.114 11.432 27.402 10.536 25.034 10.536V10.376C25.034 10.376 26.89 9.256 28.49 9.16C29.706 9.096 30.794 9.608 30.826 11.688C30.826 12.424 30.858 13.48 30.858 14.28C31.946 10.824 33.962 9.512 35.658 9.512Z" fill="#2D2322"/>
<path d="M20.743 5.288C22.759 7.368 23.751 10.12 23.751 13.544C23.751 15.784 23.239 17.768 22.183 19.56C21.127 21.384 19.687 22.792 17.863 23.816C16.007 24.84 14.023 25.352 11.879 25.352C8.61503 25.352 5.86303 24.264 3.65503 22.056C1.41503 19.88 0.327026 17.192 0.327026 13.992C0.327026 11.816 0.807026 9.832 1.76703 8.072C2.75903 6.28 4.16703 4.84 6.02303 3.784C7.87903 2.696 9.95903 2.152 12.295 2.152C15.911 2.152 18.727 3.176 20.743 5.288ZM18.343 19.144C19.015 17.48 19.367 15.624 19.367 13.576C19.367 10.376 18.727 7.816 17.479 5.896C16.199 3.976 14.471 2.76 12.263 2.76C10.823 2.76 9.44703 3.496 8.29503 4.52C7.17503 5.512 6.27903 6.824 5.67103 8.488C5.06303 10.12 4.74303 11.944 4.74303 13.96C4.74303 16.904 5.44703 19.4 6.85503 21.48C8.23103 23.496 9.92703 24.744 11.911 24.744C13.223 24.744 14.471 24.04 15.623 23.112C16.743 22.152 17.671 20.84 18.343 19.144Z" fill="#2D2322"/>
</svg>
